HIERARCHY
ROOT Hips
{
  OFFSET 0.000000 0.000000 0.000000
  CHANNELS 6 Xposition Yposition Zposition Xrotation Yrotation Zrotation
  JOINT Spine
  {
    OFFSET 0.000000 5.000000 0.000000
    CHANNELS 3 Xrotation Yrotation Zrotation
    JOINT Chest
    {
      OFFSET 0.000000 5.000000 0.000000
      CHANNELS 3 Xrotation Yrotation Zrotation
      JOINT Neck
      {
        OFFSET 0.000000 5.000000 0.000000
        CHANNELS 3 Xrotation Yrotation Zrotation
        JOINT Head
        {
          OFFSET 0.000000 5.000000 0.000000
          CHANNELS 3 Xrotation Yrotation Zrotation
          End Site
          {
            OFFSET 0.0 0.0 5.0
          }
        }
      }
      JOINT LeftShoulder
      {
        OFFSET -5.000000 0.000000 0.000000
        CHANNELS 3 Xrotation Yrotation Zrotation
        JOINT LeftArm
        {
          OFFSET -5.000000 0.000000 0.000000
          CHANNELS 3 Xrotation Yrotation Zrotation
          JOINT LeftForeArm
          {
            OFFSET -5.000000 0.000000 0.000000
            CHANNELS 3 Xrotation Yrotation Zrotation
            JOINT LeftHand
            {
              OFFSET -5.000000 0.000000 0.000000
              CHANNELS 3 Xrotation Yrotation Zrotation
              End Site
              {
                OFFSET 0.0 0.0 5.0
              }
            }
          }
        }
      }
      JOINT RightShoulder
      {
        OFFSET 5.000000 0.000000 0.000000
        CHANNELS 3 Xrotation Yrotation Zrotation
        JOINT RightArm
        {
          OFFSET 5.000000 0.000000 0.000000
          CHANNELS 3 Xrotation Yrotation Zrotation
          JOINT RightForeArm
          {
            OFFSET 5.000000 0.000000 0.000000
            CHANNELS 3 Xrotation Yrotation Zrotation
            JOINT RightHand
            {
              OFFSET 5.000000 0.000000 0.000000
              CHANNELS 3 Xrotation Yrotation Zrotation
              End Site
              {
                OFFSET 0.0 0.0 5.0
              }
            }
          }
        }
      }
    }
  }
  JOINT LeftUpLeg
  {
    OFFSET -3.535534 -3.535534 0.000000
    CHANNELS 3 Xrotation Yrotation Zrotation
    JOINT LeftLeg
    {
      OFFSET 0.000000 -5.000000 0.000000
      CHANNELS 3 Xrotation Yrotation Zrotation
      JOINT LeftFoot
      {
        OFFSET 0.000000 -5.000000 0.000000
        CHANNELS 3 Xrotation Yrotation Zrotation
        JOINT LeftToeBase
        {
          OFFSET 0.000000 0.000000 5.000000
          CHANNELS 3 Xrotation Yrotation Zrotation
          End Site
          {
            OFFSET 0.0 0.0 5.0
          }
        }
      }
    }
  }
  JOINT RightUpLeg
  {
    OFFSET 3.535534 -3.535534 0.000000
    CHANNELS 3 Xrotation Yrotation Zrotation
    JOINT RightLeg
    {
      OFFSET 0.000000 -5.000000 0.000000
      CHANNELS 3 Xrotation Yrotation Zrotation
      JOINT RightFoot
      {
        OFFSET 0.000000 -5.000000 0.000000
        CHANNELS 3 Xrotation Yrotation Zrotation
        JOINT RightToeBase
        {
          OFFSET 0.000000 0.000000 5.000000
          CHANNELS 3 Xrotation Yrotation Zrotation
          End Site
          {
            OFFSET 0.0 0.0 5.0
          }
        }
      }
    }
  }
}
MOTION
Frames: 11
Frame Time: 0.033333
0.000000 0.000000 0.000000 5.605393 -15.253039 -130.166061 -165.992496 -61.436363 -8.349955 98.945181 -8.008657 -173.150333 -80.623413 3.000820 3.536665 0.000000 0.000000 0.000000 25.572627 -5.231780 -157.235004 115.186479 -29.198916 -161.223008 97.638821 -37.705240 -146.736635 0.000000 0.000000 0.000000 -118.230199 -29.036277 162.390965 -6.947917 -2.348664 142.683278 18.922508 9.993835 124.630971 0.000000 0.000000 0.000000 -167.615551 -12.626467 -1.375445 -150.659785 23.112347 6.128079 -132.274622 22.838868 -49.084320 0.000000 0.000000 0.000000 -163.518816 -33.027297 -4.917173 -156.021093 -2.327270 -0.494294 -132.171649 -37.459645 74.804874 0.000000 0.000000 0.000000
0.000000 0.000000 0.000000 5.627417 -15.333430 -130.114651 -165.765951 -62.178137 -8.610996 99.022300 -8.187025 -173.007151 -80.300413 3.084626 3.656246 0.000000 0.000000 0.000000 23.819111 -4.952767 -156.823496 115.218322 -28.757583 -161.525192 99.586076 -38.051429 -147.499778 0.000000 0.000000 0.000000 -118.506882 -29.477734 162.211951 -9.283281 -3.114303 142.976582 17.669359 9.278295 124.863709 0.000000 0.000000 0.000000 -167.524293 -12.932453 -1.419519 -150.437478 23.020164 6.151271 -132.307426 22.857852 -49.154814 0.000000 0.000000 0.000000 -163.446116 -32.359910 -4.833892 -155.660669 -2.204702 -0.475508 -132.559340 -37.398648 75.214787 0.000000 0.000000 0.000000
0.000000 0.000000 0.000000 5.620691 -15.341295 -130.051310 -165.512755 -63.168537 -8.936729 99.970425 -8.404135 -172.940663 -79.323346 3.785512 4.565127 0.000000 0.000000 0.000000 22.819047 -4.857532 -156.261072 115.300609 -28.636504 -161.633621 100.779016 -37.704261 -148.442403 0.000000 0.000000 0.000000 -117.563675 -29.146600 162.091735 -8.319178 -2.769886 143.223140 19.459071 10.215292 124.934942 0.000000 0.000000 0.000000 -167.505230 -13.133652 -1.444015 -150.473969 22.849257 6.096590 -132.390349 23.013689 -49.543333 0.000000 0.000000 0.000000 -163.500973 -32.131942 -4.781917 -155.647071 -2.259225 -0.487551 -132.782489 -37.382834 75.483221 0.000000 0.000000 0.000000
0.000000 0.000000 0.000000 5.588263 -15.271932 -130.006741 -165.318011 -63.854900 -9.179203 99.990755 -8.452716 -172.902363 -78.714045 4.132153 5.037203 0.000000 0.000000 0.000000 22.855862 -4.897264 -156.110688 114.508377 -28.240089 -161.620692 101.218696 -37.467294 -148.877429 0.000000 0.000000 0.000000 -116.885736 -28.972009 161.967415 -7.513630 -2.484812 143.444779 20.426510 10.707434 125.038160 0.000000 0.000000 0.000000 -167.455973 -13.225921 -1.460027 -150.532897 22.542903 6.000318 -132.488874 23.259577 -50.123562 0.000000 0.000000 0.000000 -163.542180 -32.207256 -4.781599 -155.597592 -2.275016 -0.491988 -133.052107 -37.230616 75.596525 0.000000 0.000000 0.000000
0.000000 0.000000 0.000000 5.582496 -15.282679 -129.942472 -165.192450 -64.337762 -9.345000 101.344821 -8.635833 -172.920302 -78.480033 4.507209 5.517092 0.000000 0.000000 0.000000 30.188335 -6.528109 -156.121467 117.890616 -30.843379 -161.137659 103.146742 -39.350111 -148.325922 0.000000 0.000000 0.000000 -115.966809 -28.795689 161.761626 -7.574942 -2.434884 144.404740 22.791292 11.298888 127.717141 0.000000 0.000000 0.000000 -167.462431 -13.528172 -1.492922 -150.521614 22.539695 6.001840 -132.561319 23.452093 -50.573137 0.000000 0.000000 0.000000 -163.538017 -32.271225 -4.792833 -155.556472 -2.236095 -0.484409 -133.200847 -37.241154 75.810888 0.000000 0.000000 0.000000
0.000000 0.000000 0.000000 5.523900 -15.172258 -129.823770 -165.295397 -63.951136 -9.210573 101.859906 -8.533344 -173.068177 -78.400963 4.589938 5.626210 0.000000 0.000000 0.000000 35.665858 -7.810146 -156.039915 118.450583 -32.389603 -160.374808 103.004871 -40.055368 -147.663607 0.000000 0.000000 0.000000 -105.102069 -24.512993 161.106549 17.870401 5.491927 146.070509 40.799987 19.381204 130.673516 0.000000 0.000000 0.000000 -167.379424 -15.057147 -1.674591 -150.455578 22.763786 6.077164 -132.632759 23.768140 -51.261002 0.000000 0.000000 0.000000 -163.468973 -32.522605 -4.852721 -155.424064 -2.055827 -0.447836 -133.381678 -37.112247 75.844929 0.000000 0.000000 0.000000
0.000000 0.000000 0.000000 5.480201 -15.079320 -129.760030 -165.294485 -64.030653 -9.225322 102.427322 -8.451221 -173.203999 -78.357095 4.611650 5.657223 0.000000 0.000000 0.000000 34.998854 -7.694156 -155.920458 116.569743 -31.499248 -160.227209 101.548195 -39.435282 -147.383879 0.000000 0.000000 0.000000 -103.646242 -24.312260 160.774377 17.680368 5.061429 148.271446 44.517266 18.868681 135.807050 0.000000 0.000000 0.000000 -167.318932 -16.481011 -1.843896 -150.379097 22.956632 6.146510 -132.678073 24.039067 -51.832869 0.000000 0.000000 0.000000 -163.455005 -32.805414 -4.901442 -155.364058 -1.927602 -0.420956 -133.394658 -36.948192 75.598243 0.000000 0.000000 0.000000
0.000000 0.000000 0.000000 5.426531 -14.963575 -129.684518 -165.657543 -62.656785 -8.758865 103.595373 -8.325002 -173.443937 -78.412969 4.565451 5.595015 0.000000 0.000000 0.000000 41.875683 -9.435763 -155.656131 118.761659 -33.666303 -159.695984 103.090637 -40.995095 -146.929795 0.000000 0.000000 0.000000 -93.312803 -20.946555 160.206901 37.194438 10.169075 150.376788 60.567561 24.050775 139.918430 0.000000 0.000000 0.000000 -167.222845 -18.188619 -2.053566 -150.274485 23.517661 6.323899 -132.798224 24.119827 -52.117661 0.000000 0.000000 0.000000 -163.377694 -33.148076 -4.978982 -155.332014 -1.692758 -0.370159 -133.466627 -36.623243 75.169052 0.000000 0.000000 0.000000
0.000000 0.000000 0.000000 5.383689 -14.871721 -129.621980 -165.898493 -61.585352 -8.431175 104.247493 -8.222357 -173.600205 -78.455823 4.511338 5.524521 0.000000 0.000000 0.000000 44.327810 -10.118267 -155.477786 118.949286 -34.293618 -159.378482 103.284466 -41.327018 -146.762870 0.000000 0.000000 0.000000 -89.224488 -19.783352 159.952479 40.950224 10.809381 151.562992 63.750019 24.588102 141.373548 0.000000 0.000000 0.000000 -167.160775 -19.187864 -2.179058 -150.213453 23.856261 6.431179 -132.889132 24.162511 -52.298114 0.000000 0.000000 0.000000 -163.331287 -33.335132 -5.022850 -155.311129 -1.538122 -0.336634 -133.521861 -36.405621 74.889285 0.000000 0.000000 0.000000
0.000000 0.000000 0.000000 5.367521 -14.835759 -129.601388 -166.910413 -58.398228 -7.337198 105.625631 -8.198084 -173.775700 -78.694482 4.238225 5.168248 0.000000 0.000000 0.000000 47.673851 -11.079957 -155.236538 120.655804 -35.566957 -159.287650 104.427166 -42.163989 -146.718932 0.000000 0.000000 0.000000 -86.093044 -19.060603 159.620555 46.432874 11.593139 153.369982 69.693875 25.619136 143.828882 0.000000 0.000000 0.000000 -167.040916 -20.912738 -2.401515 -150.066087 24.436049 6.625976 -132.993972 24.188988 -52.462760 0.000000 0.000000 0.000000 -163.146951 -34.021995 -5.189979 -155.274601 -1.065559 -0.233558 -133.640778 -36.266749 74.821509 0.000000 0.000000 0.000000
0.000000 0.000000 0.000000 5.348711 -14.791039 -129.584485 -168.215868 -51.736986 -5.729510 104.606107 -7.805009 -173.964510 -78.967887 3.531166 4.285452 0.000000 0.000000 0.000000 47.882809 -11.394933 -154.671722 122.397439 -36.586355 -159.397762 105.565898 -42.218162 -147.316775 0.000000 0.000000 0.000000 -77.206090 -16.933661 158.876683 62.202062 15.347420 154.819391 78.489278 28.504668 145.453489 0.000000 0.000000 0.000000 -166.757548 -24.244103 -2.856405 -149.810949 25.272014 6.920599 -133.146154 24.167904 -52.587232 0.000000 0.000000 0.000000 -162.773249 -35.768576 -5.596677 -155.249855 -0.251500 -0.055181 -133.713604 -36.132910 74.700015 0.000000 0.000000 0.000000
